<?xml version="1.0" encoding="UTF-8" standalone="no"?>
<svg
   width="375pt"
   height="374.999991pt"
   viewBox="0 0 375 374.999991"
   version="1.2"
   id="svg12"
   sodipodi:docname="Building Approvals.svg"
   inkscape:version="1.1.2 (0a00cf5339, 2022-02-04)"
   xmlns:inkscape="http://www.inkscape.org/namespaces/inkscape"
   xmlns:sodipodi="http://sodipodi.sourceforge.net/DTD/sodipodi-0.dtd"
   xmlns="http://www.w3.org/2000/svg"
   xmlns:svg="http://www.w3.org/2000/svg">
  <sodipodi:namedview
     id="namedview14"
     pagecolor="#ffffff"
     bordercolor="#666666"
     borderopacity="1.0"
     inkscape:pageshadow="2"
     inkscape:pageopacity="0.0"
     inkscape:pagecheckerboard="0"
     inkscape:document-units="pt"
     showgrid="false"
     inkscape:zoom="1.798"
     inkscape:cx="73.414905"
     inkscape:cy="250"
     inkscape:window-width="1914"
     inkscape:window-height="1174"
     inkscape:window-x="0"
     inkscape:window-y="20"
     inkscape:window-maximized="1"
     inkscape:current-layer="svg12" />
  <defs
     id="defs5">
    <clipPath
       id="clip1">
      <path
         d="M 12.535156 53.066406 L 362.785156 53.066406 L 362.785156 374.816406 L 12.535156 374.816406 Z M 12.535156 53.066406 "
         id="path2" />
    </clipPath>
  </defs>
  <g
     id="surface1">
    <g
       clip-path="url(#clip1)"
       clip-rule="nonzero"
       id="g9">
      <path
         style="stroke:none;fill-rule:evenodd;fill:#000000;fill-opacity:1"
         d="M 357.113281 284.414062 C 360.265625 284.414062 362.785156 281.894531 362.785156 278.746094 L 362.785156 233.632812 C 362.785156 230.484375 360.265625 227.964844 357.113281 227.964844 L 340.160156 227.964844 L 340.160156 210.339844 C 340.160156 192.921875 325.589844 191.035156 303.945312 200.265625 C 298.058594 202.785156 295.679688 202.644531 292.804688 200.617188 C 291.613281 199.777344 290.285156 198.519531 288.394531 196.558594 C 287.832031 196 283.558594 191.523438 282.019531 190.054688 C 277.816406 185.859375 272.492188 183.269531 266.46875 181.941406 C 260.023438 180.542969 253.296875 180.753906 246.851562 181.941406 C 245.171875 182.289062 243.910156 182.570312 243 182.851562 L 194.246094 182.851562 L 185.210938 152.144531 C 183.738281 147.109375 178.625 143.332031 173.371094 143.332031 L 159.222656 143.332031 L 159.222656 120.878906 L 164.894531 120.878906 C 168.046875 120.878906 170.570312 118.359375 170.570312 115.210938 C 170.570312 109.476562 170.570312 75.132812 170.570312 69.398438 C 170.570312 60.445312 163.285156 53.171875 154.316406 53.171875 L 152.917969 53.171875 C 143.949219 53.171875 136.664062 60.445312 136.664062 69.398438 L 136.664062 115.210938 C 136.664062 118.359375 139.1875 120.878906 142.339844 120.878906 L 148.011719 120.878906 L 148.011719 143.402344 L 133.863281 143.402344 C 128.609375 143.402344 123.496094 147.179688 122.023438 152.214844 L 112.988281 182.921875 C 112.917969 182.921875 112.847656 182.921875 112.777344 182.921875 L 63.390625 182.921875 C 60.238281 182.921875 57.71875 185.4375 57.71875 188.585938 L 57.71875 228.035156 L 18.210938 228.035156 C 15.058594 228.035156 12.535156 230.554688 12.535156 233.703125 C 12.535156 239.367188 12.535156 273.222656 12.535156 278.816406 C 12.535156 284.414062 12.535156 318.335938 12.535156 323.933594 C 12.535156 329.527344 12.535156 363.453125 12.535156 369.046875 C 12.535156 372.195312 15.058594 374.710938 18.210938 374.710938 L 357.113281 374.710938 C 360.265625 374.710938 362.785156 372.195312 362.785156 369.046875 L 362.785156 323.933594 C 362.785156 320.785156 360.265625 318.265625 357.113281 318.265625 L 340.160156 318.265625 L 340.160156 284.414062 Z M 249.796875 193.132812 C 254.628906 192.292969 259.53125 192.152344 264.085938 193.132812 C 268.078125 193.972656 271.371094 195.652344 273.960938 198.238281 C 275.363281 199.636719 279.707031 203.972656 280.335938 204.605469 C 282.71875 206.980469 284.46875 208.589844 286.363281 209.917969 C 292.734375 214.464844 299.390625 214.605469 308.636719 210.617188 C 324.046875 204.042969 328.953125 204.742188 328.953125 210.410156 L 328.953125 228.035156 L 249.796875 228.035156 Z M 244.121094 239.296875 L 283.699219 239.296875 L 283.699219 273.152344 L 204.542969 273.152344 C 204.542969 264.269531 204.542969 248.179688 204.542969 239.296875 Z M 198.800781 198.238281 L 197.539062 194.183594 L 238.515625 194.183594 L 238.515625 228.035156 L 198.9375 228.035156 C 195.785156 228.035156 193.265625 230.554688 193.265625 233.703125 C 193.265625 238.667969 193.265625 262.867188 193.265625 273.222656 L 114.109375 273.222656 L 114.109375 239.367188 L 132.460938 239.367188 L 140.9375 252.585938 C 147.523438 262.9375 159.78125 262.9375 166.367188 252.585938 L 197.957031 202.855469 C 198.9375 201.457031 199.21875 199.777344 198.800781 198.238281 Z M 148.082031 69.398438 C 148.082031 66.667969 150.253906 64.429688 153.054688 64.429688 L 154.457031 64.429688 C 157.1875 64.429688 159.429688 66.601562 159.429688 69.398438 C 159.429688 74.433594 159.429688 99.125 159.429688 109.617188 L 148.152344 109.617188 L 148.152344 69.398438 Z M 133.09375 155.429688 C 133.164062 155.222656 133.722656 154.730469 134.003906 154.730469 L 148.152344 154.730469 L 148.152344 171.660156 C 148.152344 174.804688 150.675781 177.324219 153.828125 177.324219 C 156.980469 177.324219 159.5 174.804688 159.5 171.660156 L 159.5 154.730469 L 173.652344 154.730469 C 173.859375 154.730469 174.492188 155.222656 174.5625 155.429688 L 187.242188 198.9375 L 157.050781 246.363281 C 154.878906 249.71875 152.847656 249.71875 150.675781 246.363281 L 120.414062 198.9375 C 121.675781 194.53125 133.09375 155.429688 133.09375 155.429688 Z M 68.996094 194.183594 L 109.976562 194.183594 L 108.714844 198.238281 C 108.292969 199.777344 108.574219 201.457031 109.414062 202.855469 L 125.457031 228.035156 L 68.996094 228.035156 Z M 23.8125 239.296875 L 102.902344 239.296875 L 102.902344 273.152344 L 23.8125 273.152344 C 23.8125 264.335938 23.8125 248.179688 23.8125 239.296875 Z M 23.8125 284.414062 L 57.71875 284.414062 L 57.71875 318.265625 L 23.8125 318.265625 C 23.8125 309.453125 23.8125 293.296875 23.8125 284.414062 Z M 102.902344 363.382812 L 23.8125 363.382812 C 23.8125 354.5 23.8125 338.410156 23.8125 329.527344 L 102.902344 329.527344 Z M 68.996094 318.265625 C 68.996094 309.382812 68.996094 293.296875 68.996094 284.414062 L 148.152344 284.414062 L 148.152344 318.265625 Z M 193.335938 363.382812 L 114.25 363.382812 L 114.25 329.527344 L 193.40625 329.527344 L 193.40625 363.382812 Z M 159.429688 318.265625 C 159.429688 309.382812 159.429688 293.296875 159.429688 284.414062 L 238.585938 284.414062 L 238.585938 318.265625 Z M 283.699219 363.382812 L 204.613281 363.382812 L 204.613281 329.527344 L 283.769531 329.527344 L 283.769531 363.382812 Z M 249.796875 318.265625 C 249.796875 309.382812 249.796875 293.296875 249.796875 284.414062 L 328.953125 284.414062 L 328.953125 318.265625 Z M 351.507812 329.597656 L 351.507812 363.453125 L 295.046875 363.453125 L 295.046875 329.597656 Z M 334.554688 273.152344 L 294.976562 273.152344 L 294.976562 239.296875 L 351.507812 239.296875 L 351.507812 273.152344 Z M 334.554688 273.152344 "
         id="path7" />
    </g>
  </g>
</svg>
