<?xml version="1.0" encoding="UTF-8" standalone="no"?>
<svg
   height="374.999991"
   preserveAspectRatio="xMidYMid meet"
   version="1.0"
   viewBox="0 0 375 374.999991"
   width="375"
   zoomAndPan="magnify"
   id="svg973"
   sodipodi:docname="Neighbourhoods.svg"
   inkscape:version="1.1.2 (0a00cf5339, 2022-02-04)"
   xmlns:inkscape="http://www.inkscape.org/namespaces/inkscape"
   xmlns:sodipodi="http://sodipodi.sourceforge.net/DTD/sodipodi-0.dtd"
   xmlns="http://www.w3.org/2000/svg"
   xmlns:svg="http://www.w3.org/2000/svg">
  <defs
     id="defs977" />
  <sodipodi:namedview
     id="namedview975"
     pagecolor="#ffffff"
     bordercolor="#666666"
     borderopacity="1.0"
     inkscape:pageshadow="2"
     inkscape:pageopacity="0.0"
     inkscape:pagecheckerboard="0"
     showgrid="false"
     inkscape:zoom="2.3973333"
     inkscape:cx="55.061179"
     inkscape:cy="187.5"
     inkscape:window-width="1914"
     inkscape:window-height="1174"
     inkscape:window-x="0"
     inkscape:window-y="20"
     inkscape:window-maximized="1"
     inkscape:current-layer="svg973" />
  <path
     d="M 265.742188 57.496094 C 208.332031 0.0703125 114.90625 0.0703125 57.492188 57.496094 C 0.0703125 114.90625 0.0703125 208.332031 57.492188 265.742188 C 112.941406 321.191406 201.960938 323.082031 259.710938 271.4375 L 271.386719 283.113281 C 268.476562 290.558594 270 299.324219 276.015625 305.335938 L 337.613281 366.9375 C 345.714844 375.039062 358.847656 375.039062 366.945312 366.9375 C 375.046875 358.84375 375.046875 345.710938 366.945312 337.609375 L 305.34375 276.011719 C 299.332031 269.996094 290.558594 268.472656 283.117188 271.382812 L 271.445312 259.707031 C 323.09375 201.957031 321.191406 112.9375 265.742188 57.496094 Z M 75.085938 248.152344 C 27.375 200.4375 27.375 122.800781 75.085938 75.085938 C 122.800781 27.375 200.4375 27.375 248.152344 75.085938 C 295.863281 122.800781 295.863281 200.4375 248.152344 248.152344 C 200.4375 295.859375 122.800781 295.859375 75.085938 248.152344 Z M 75.085938 248.152344 "
     fill="#000000"
     fill-opacity="1"
     fill-rule="nonzero"
     id="path967" />
  <path
     d="M 210.328125 81.417969 C 183.433594 54.523438 139.980469 54.738281 113.085938 81.632812 C 86.1875 108.527344 86 152.078125 112.894531 178.96875 L 161.488281 227.285156 L 210.175781 178.589844 C 237.066406 151.691406 237.214844 108.308594 210.328125 81.417969 Z M 161.660156 171.238281 C 138.78125 171.238281 120.230469 152.691406 120.230469 129.816406 C 120.230469 106.929688 138.78125 88.382812 161.660156 88.382812 C 184.546875 88.382812 203.09375 106.933594 203.09375 129.816406 C 203.09375 152.6875 184.550781 171.238281 161.660156 171.238281 Z M 161.660156 171.238281 "
     fill="#000000"
     fill-opacity="1"
     fill-rule="nonzero"
     id="path969" />
  <path
     d="M 160.878906 240.738281 C 178.140625 240.738281 194.4375 244.5 208.890625 251.144531 C 197.621094 238.515625 180.175781 230.367188 160.535156 230.367188 C 140.625 230.367188 122.96875 238.75 111.722656 251.691406 C 126.46875 244.703125 143.167969 240.738281 160.878906 240.738281 Z M 160.878906 240.738281 "
     fill="#000000"
     fill-opacity="1"
     fill-rule="nonzero"
     id="path971" />
</svg>
