<?xml version="1.0" encoding="UTF-8" standalone="no"?>
<svg
   contentScriptType="text/ecmascript"
   width="375"
   zoomAndPan="magnify"
   contentStyleType="text/css"
   viewBox="0 0 375 374.999991"
   height="374.999991"
   preserveAspectRatio="xMidYMid meet"
   version="1.0"
   id="svg10"
   sodipodi:docname="LinkedIn.svg"
   inkscape:version="1.1.2 (0a00cf5339, 2022-02-04)"
   xmlns:inkscape="http://www.inkscape.org/namespaces/inkscape"
   xmlns:sodipodi="http://sodipodi.sourceforge.net/DTD/sodipodi-0.dtd"
   xmlns="http://www.w3.org/2000/svg"
   xmlns:svg="http://www.w3.org/2000/svg">
  <defs
     id="defs14" />
  <sodipodi:namedview
     id="namedview12"
     pagecolor="#ffffff"
     bordercolor="#666666"
     borderopacity="1.0"
     inkscape:pageshadow="2"
     inkscape:pageopacity="0.0"
     inkscape:pagecheckerboard="0"
     showgrid="false"
     inkscape:zoom="0.90509668"
     inkscape:cx="300.52038"
     inkscape:cy="281.18543"
     inkscape:window-width="1914"
     inkscape:window-height="1174"
     inkscape:window-x="0"
     inkscape:window-y="20"
     inkscape:window-maximized="1"
     inkscape:current-layer="svg10" />
  <rect
     x="-37.5"
     width="450"
     fill="rgb(100%, 100%, 100%)"
     y="-37.499999"
     height="449.999989"
     fill-opacity="1"
     id="rect2" />
  <rect
     x="-37.5"
     width="450"
     fill="rgb(100%, 100%, 100%)"
     y="-37.499999"
     height="449.999989"
     fill-opacity="1"
     id="rect4" />
  <rect
     x="-37.5"
     width="450"
     fill="rgb(0%, 0%, 0%)"
     y="-37.499999"
     height="449.999989"
     fill-opacity="1"
     id="rect6"
     style="fill:#ffffff;fill-opacity:1" />
  <path
     fill="rgb(100%, 100%, 100%)"
     d="M 340.910156 0 L 34.089844 0 C 15.253906 0 0 15.253906 0 34.089844 L 0 340.910156 C 0 359.746094 15.253906 375 34.089844 375 L 340.910156 375 C 359.746094 375 375 359.746094 375 340.910156 L 375 34.089844 C 375 15.253906 359.746094 0 340.910156 0 Z M 118.535156 306.816406 L 68.25 306.816406 L 68.25 145.023438 L 118.535156 145.023438 Z M 92.878906 121.890625 C 76.671875 121.890625 63.5625 108.75 63.5625 92.574219 C 63.5625 76.398438 76.6875 63.273438 92.878906 63.273438 C 109.039062 63.273438 122.183594 76.414062 122.183594 92.574219 C 122.183594 108.75 109.039062 121.890625 92.878906 121.890625 Z M 306.886719 306.816406 L 256.636719 306.816406 L 256.636719 228.136719 C 256.636719 209.371094 256.296875 185.234375 230.503906 185.234375 C 204.339844 185.234375 200.316406 205.671875 200.316406 226.773438 L 200.316406 306.816406 L 150.066406 306.816406 L 150.066406 145.023438 L 198.308594 145.023438 L 198.308594 167.128906 L 198.988281 167.128906 C 205.703125 154.414062 222.101562 141 246.5625 141 C 297.476562 141 306.886719 174.511719 306.886719 218.078125 Z M 306.886719 306.816406 "
     fill-opacity="1"
     fill-rule="nonzero"
     id="path8"
     style="fill:#000000;fill-opacity:1" />
</svg>
