<?xml version="1.0" encoding="UTF-8" standalone="no"?>
<svg
   width="375pt"
   height="374.999991pt"
   viewBox="0 0 375 374.999991"
   version="1.2"
   id="svg1054"
   sodipodi:docname="Price Segments.svg"
   inkscape:version="1.1.2 (0a00cf5339, 2022-02-04)"
   xmlns:inkscape="http://www.inkscape.org/namespaces/inkscape"
   xmlns:sodipodi="http://sodipodi.sourceforge.net/DTD/sodipodi-0.dtd"
   xmlns="http://www.w3.org/2000/svg"
   xmlns:svg="http://www.w3.org/2000/svg">
  <sodipodi:namedview
     id="namedview1056"
     pagecolor="#ffffff"
     bordercolor="#666666"
     borderopacity="1.0"
     inkscape:pageshadow="2"
     inkscape:pageopacity="0.0"
     inkscape:pagecheckerboard="0"
     inkscape:document-units="pt"
     showgrid="false"
     inkscape:zoom="1.798"
     inkscape:cx="73.414905"
     inkscape:cy="250"
     inkscape:window-width="1914"
     inkscape:window-height="1174"
     inkscape:window-x="0"
     inkscape:window-y="20"
     inkscape:window-maximized="1"
     inkscape:current-layer="svg1054" />
  <defs
     id="defs1039">
    <clipPath
       id="clip1">
      <path
         d="M 8 55.417969 L 370.976562 55.417969 L 370.976562 374.917969 L 8 374.917969 Z M 8 55.417969 "
         id="path1036" />
    </clipPath>
  </defs>
  <g
     id="surface1">
    <g
       clip-path="url(#clip1)"
       clip-rule="nonzero"
       id="g1043">
      <path
         style="stroke:none;fill-rule:nonzero;fill:#000000;fill-opacity:1"
         d="M 370.839844 374.902344 L 8.183594 374.902344 L 8.183594 55.417969 L 20.597656 55.417969 L 20.597656 362.488281 L 370.839844 362.488281 L 370.839844 374.902344 "
         id="path1041" />
    </g>
    <path
       style="stroke:none;fill-rule:nonzero;fill:#000000;fill-opacity:1"
       d="M 107.070312 343.910156 L 55.648438 343.910156 L 55.648438 242.226562 L 107.070312 242.226562 L 107.070312 343.910156 "
       id="path1045" />
    <path
       style="stroke:none;fill-rule:nonzero;fill:#000000;fill-opacity:1"
       d="M 179.769531 343.910156 L 128.347656 343.910156 L 128.347656 163.601562 L 179.769531 163.601562 L 179.769531 343.910156 "
       id="path1047" />
    <path
       style="stroke:none;fill-rule:nonzero;fill:#000000;fill-opacity:1"
       d="M 252.46875 343.910156 L 201.046875 343.910156 L 201.046875 106.847656 L 252.46875 106.847656 L 252.46875 343.910156 "
       id="path1049" />
    <path
       style="stroke:none;fill-rule:nonzero;fill:#000000;fill-opacity:1"
       d="M 325.171875 343.910156 L 273.75 343.910156 L 273.75 187.839844 L 325.171875 187.839844 L 325.171875 343.910156 "
       id="path1051" />
  </g>
</svg>
