<?xml version="1.0" encoding="UTF-8" standalone="no"?>
<svg
   height="374.999991"
   preserveAspectRatio="xMidYMid meet"
   version="1.0"
   viewBox="0 0 375 374.999991"
   width="375"
   zoomAndPan="magnify"
   id="svg1170"
   sodipodi:docname="Profiles.svg"
   inkscape:version="1.1.2 (0a00cf5339, 2022-02-04)"
   xmlns:inkscape="http://www.inkscape.org/namespaces/inkscape"
   xmlns:sodipodi="http://sodipodi.sourceforge.net/DTD/sodipodi-0.dtd"
   xmlns="http://www.w3.org/2000/svg"
   xmlns:svg="http://www.w3.org/2000/svg">
  <sodipodi:namedview
     id="namedview1172"
     pagecolor="#ffffff"
     bordercolor="#666666"
     borderopacity="1.0"
     inkscape:pageshadow="2"
     inkscape:pageopacity="0.0"
     inkscape:pagecheckerboard="0"
     showgrid="false"
     inkscape:zoom="2.3973333"
     inkscape:cx="55.061179"
     inkscape:cy="187.5"
     inkscape:window-width="1914"
     inkscape:window-height="1174"
     inkscape:window-x="0"
     inkscape:window-y="20"
     inkscape:window-maximized="1"
     inkscape:current-layer="svg1170" />
  <defs
     id="defs1130">
    <clipPath
       id="clip-0">
      <path
         clip-rule="nonzero"
         d="M 95 223 L 184 223 L 184 374.25 L 95 374.25 Z M 95 223 "
         id="path1115" />
    </clipPath>
    <clipPath
       id="clip-1">
      <path
         clip-rule="nonzero"
         d="M 191 223 L 280 223 L 280 374.25 L 191 374.25 Z M 191 223 "
         id="path1118" />
    </clipPath>
    <clipPath
       id="clip-2">
      <path
         clip-rule="nonzero"
         d="M 0 223 L 89 223 L 89 374.25 L 0 374.25 Z M 0 223 "
         id="path1121" />
    </clipPath>
    <clipPath
       id="clip-3">
      <path
         clip-rule="nonzero"
         d="M 286 223 L 375 223 L 375 374.25 L 286 374.25 Z M 286 223 "
         id="path1124" />
    </clipPath>
    <clipPath
       id="clip-4">
      <path
         clip-rule="nonzero"
         d="M 156 29.25 L 219 29.25 L 219 67 L 156 67 Z M 156 29.25 "
         id="path1127" />
    </clipPath>
  </defs>
  <path
     d="M 108.324219 185.378906 C 108.324219 202.683594 122.402344 216.761719 139.703125 216.761719 C 157.007812 216.761719 171.085938 202.683594 171.085938 185.378906 C 171.085938 168.078125 157.007812 154 139.703125 154 C 122.402344 154 108.324219 168.078125 108.324219 185.378906 Z M 158.59375 185.378906 C 158.59375 195.796875 150.121094 204.269531 139.703125 204.269531 C 129.289062 204.269531 120.816406 195.796875 120.816406 185.378906 C 120.816406 174.964844 129.289062 166.492188 139.703125 166.492188 C 150.121094 166.492188 158.59375 174.964844 158.59375 185.378906 Z M 158.59375 185.378906 "
     fill="#000000"
     fill-opacity="1"
     fill-rule="nonzero"
     id="path1132" />
  <path
     d="M 66.601562 150.234375 C 70.046875 150.234375 72.84375 147.4375 72.84375 143.992188 C 72.84375 133.574219 81.320312 125.097656 91.730469 125.097656 C 102.148438 125.097656 110.625 133.574219 110.625 143.992188 C 110.625 147.4375 113.421875 150.234375 116.867188 150.234375 C 120.316406 150.234375 123.113281 147.4375 123.113281 143.992188 C 123.113281 126.6875 109.035156 112.609375 91.730469 112.609375 C 74.429688 112.609375 60.355469 126.6875 60.355469 143.992188 C 60.355469 147.4375 63.152344 150.234375 66.601562 150.234375 Z M 66.601562 150.234375 "
     fill="#000000"
     fill-opacity="1"
     fill-rule="nonzero"
     id="path1134" />
  <g
     clip-path="url(#clip-0)"
     id="g1138">
    <path
       d="M 130.203125 374.246094 L 149.210938 374.246094 C 160.808594 374.246094 170.242188 364.820312 170.242188 353.238281 L 170.242188 309.707031 C 178.191406 306.601562 183.679688 298.886719 183.679688 289.9375 L 183.679688 244.34375 C 183.679688 232.636719 174.15625 223.109375 162.449219 223.109375 L 116.960938 223.109375 C 105.253906 223.109375 95.726562 232.636719 95.726562 244.34375 L 95.726562 289.9375 C 95.726562 298.890625 101.214844 306.601562 109.167969 309.707031 L 109.167969 353.238281 C 109.167969 364.820312 118.605469 374.246094 130.203125 374.246094 Z M 108.214844 289.9375 L 108.214844 244.34375 C 108.214844 239.519531 112.140625 235.601562 116.960938 235.601562 L 162.449219 235.601562 C 167.273438 235.601562 171.191406 239.519531 171.191406 244.34375 L 171.191406 289.9375 C 171.191406 294.4375 167.824219 298.179688 163.363281 298.636719 C 160.175781 298.960938 157.753906 301.644531 157.753906 304.847656 L 157.753906 353.238281 C 157.753906 357.933594 153.917969 361.757812 149.210938 361.757812 L 130.203125 361.757812 C 125.492188 361.757812 121.660156 357.933594 121.660156 353.238281 L 121.660156 304.847656 C 121.660156 301.644531 119.238281 298.960938 116.050781 298.636719 C 111.582031 298.179688 108.214844 294.4375 108.214844 289.9375 Z M 108.214844 289.9375 "
       fill="#000000"
       fill-opacity="1"
       fill-rule="nonzero"
       id="path1136" />
  </g>
  <path
     d="M 203.914062 185.378906 C 203.914062 202.683594 217.992188 216.761719 235.296875 216.761719 C 252.597656 216.761719 266.675781 202.683594 266.675781 185.378906 C 266.675781 168.078125 252.597656 154 235.296875 154 C 217.992188 154 203.914062 168.078125 203.914062 185.378906 Z M 235.296875 166.492188 C 245.710938 166.492188 254.183594 174.964844 254.183594 185.378906 C 254.183594 195.796875 245.710938 204.269531 235.296875 204.269531 C 224.878906 204.269531 216.40625 195.796875 216.40625 185.378906 C 216.40625 174.964844 224.878906 166.492188 235.296875 166.492188 Z M 235.296875 166.492188 "
     fill="#000000"
     fill-opacity="1"
     fill-rule="nonzero"
     id="path1140" />
  <g
     clip-path="url(#clip-1)"
     id="g1144">
    <path
       d="M 265.832031 309.707031 C 273.785156 306.601562 279.277344 298.890625 279.277344 289.9375 L 279.277344 244.34375 C 279.277344 232.636719 269.75 223.109375 258.039062 223.109375 L 212.550781 223.109375 C 200.84375 223.109375 191.320312 232.636719 191.320312 244.34375 L 191.320312 289.9375 C 191.320312 298.886719 196.808594 306.601562 204.757812 309.707031 L 204.757812 353.238281 C 204.757812 364.820312 214.191406 374.246094 225.789062 374.246094 L 244.796875 374.246094 C 256.394531 374.246094 265.832031 364.820312 265.832031 353.238281 Z M 258.953125 298.632812 C 255.765625 298.960938 253.34375 301.644531 253.34375 304.847656 L 253.34375 353.238281 C 253.34375 357.933594 249.507812 361.757812 244.800781 361.757812 L 225.789062 361.757812 C 221.082031 361.757812 217.25 357.933594 217.25 353.238281 L 217.25 304.847656 C 217.25 301.644531 214.824219 298.960938 211.636719 298.632812 C 207.175781 298.179688 203.8125 294.4375 203.8125 289.9375 L 203.8125 244.34375 C 203.8125 239.519531 207.730469 235.601562 212.554688 235.601562 L 258.039062 235.601562 C 262.863281 235.601562 266.785156 239.519531 266.785156 244.34375 L 266.785156 289.9375 C 266.785156 294.4375 263.417969 298.179688 258.953125 298.632812 Z M 258.953125 298.632812 "
       fill="#000000"
       fill-opacity="1"
       fill-rule="nonzero"
       id="path1142" />
  </g>
  <path
     d="M 44.113281 216.761719 C 61.417969 216.761719 75.496094 202.683594 75.496094 185.378906 C 75.496094 168.078125 61.417969 154 44.113281 154 C 26.808594 154 12.730469 168.078125 12.730469 185.378906 C 12.734375 202.683594 26.808594 216.761719 44.113281 216.761719 Z M 44.113281 166.492188 C 54.53125 166.492188 63.003906 174.964844 63.003906 185.378906 C 63.003906 195.796875 54.53125 204.269531 44.113281 204.269531 C 33.695312 204.269531 25.222656 195.796875 25.222656 185.378906 C 25.222656 174.964844 33.695312 166.492188 44.113281 166.492188 Z M 44.113281 166.492188 "
     fill="#000000"
     fill-opacity="1"
     fill-rule="nonzero"
     id="path1146" />
  <g
     clip-path="url(#clip-2)"
     id="g1150">
    <path
       d="M 13.574219 309.707031 L 13.574219 353.238281 C 13.574219 364.820312 23.011719 374.246094 34.605469 374.246094 L 53.621094 374.246094 C 65.214844 374.246094 74.652344 364.820312 74.652344 353.238281 L 74.652344 309.707031 C 82.601562 306.597656 88.089844 298.886719 88.089844 289.9375 L 88.089844 244.34375 C 88.089844 232.636719 78.5625 223.109375 66.859375 223.109375 L 21.371094 223.109375 C 9.664062 223.113281 0.136719 232.640625 0.136719 244.34375 L 0.136719 289.9375 C 0.136719 298.886719 5.625 306.597656 13.574219 309.707031 Z M 12.625 244.34375 C 12.625 239.523438 16.546875 235.601562 21.371094 235.601562 L 66.859375 235.601562 C 71.683594 235.601562 75.601562 239.523438 75.601562 244.34375 L 75.601562 289.9375 C 75.601562 294.441406 72.234375 298.179688 67.777344 298.636719 C 64.585938 298.960938 62.164062 301.644531 62.164062 304.847656 L 62.164062 353.238281 C 62.164062 357.9375 58.328125 361.757812 53.621094 361.757812 L 34.609375 361.757812 C 29.898438 361.757812 26.066406 357.9375 26.066406 353.238281 L 26.066406 304.847656 C 26.066406 301.644531 23.640625 298.960938 20.453125 298.636719 C 15.996094 298.179688 12.628906 294.441406 12.628906 289.9375 L 12.628906 244.34375 Z M 12.625 244.34375 "
       fill="#000000"
       fill-opacity="1"
       fill-rule="nonzero"
       id="path1148" />
  </g>
  <path
     d="M 187.5 112.609375 C 170.195312 112.609375 156.117188 126.6875 156.117188 143.992188 C 156.117188 147.4375 158.914062 150.234375 162.363281 150.234375 C 165.8125 150.234375 168.609375 147.4375 168.609375 143.992188 C 168.609375 133.574219 177.082031 125.097656 187.5 125.097656 C 197.917969 125.097656 206.390625 133.574219 206.390625 143.992188 C 206.390625 147.4375 209.1875 150.234375 212.636719 150.234375 C 216.085938 150.234375 218.882812 147.4375 218.882812 143.992188 C 218.882812 126.6875 204.804688 112.609375 187.5 112.609375 Z M 187.5 112.609375 "
     fill="#000000"
     fill-opacity="1"
     fill-rule="nonzero"
     id="path1152" />
  <path
     d="M 299.503906 185.378906 C 299.503906 202.683594 313.582031 216.761719 330.886719 216.761719 C 348.191406 216.761719 362.269531 202.683594 362.269531 185.378906 C 362.269531 168.078125 348.191406 154 330.886719 154 C 313.582031 154 299.503906 168.078125 299.503906 185.378906 Z M 330.886719 166.492188 C 341.304688 166.492188 349.777344 174.964844 349.777344 185.378906 C 349.777344 195.796875 341.304688 204.269531 330.886719 204.269531 C 320.46875 204.269531 311.996094 195.796875 311.996094 185.378906 C 311.996094 174.964844 320.46875 166.492188 330.886719 166.492188 Z M 330.886719 166.492188 "
     fill="#000000"
     fill-opacity="1"
     fill-rule="nonzero"
     id="path1154" />
  <g
     clip-path="url(#clip-3)"
     id="g1158">
    <path
       d="M 353.628906 223.113281 L 308.140625 223.113281 C 296.433594 223.113281 286.90625 232.640625 286.90625 244.34375 L 286.90625 289.9375 C 286.90625 298.886719 292.394531 306.597656 300.34375 309.707031 L 300.34375 353.238281 C 300.34375 364.824219 309.78125 374.25 321.378906 374.25 L 340.390625 374.25 C 351.988281 374.25 361.425781 364.824219 361.425781 353.238281 L 361.425781 309.707031 C 369.375 306.597656 374.863281 298.886719 374.863281 289.9375 L 374.863281 244.34375 C 374.863281 232.640625 365.335938 223.113281 353.628906 223.113281 Z M 362.375 289.9375 C 362.375 294.4375 359.007812 298.179688 354.546875 298.632812 C 351.359375 298.960938 348.933594 301.644531 348.933594 304.847656 L 348.933594 353.238281 C 348.933594 357.933594 345.101562 361.757812 340.394531 361.757812 L 321.378906 361.757812 C 316.671875 361.757812 312.839844 357.933594 312.839844 353.238281 L 312.839844 304.847656 C 312.839844 301.644531 310.414062 298.960938 307.226562 298.632812 C 302.765625 298.179688 299.398438 294.4375 299.398438 289.9375 L 299.398438 244.34375 C 299.398438 239.519531 303.320312 235.601562 308.140625 235.601562 L 353.632812 235.601562 C 358.457031 235.601562 362.375 239.519531 362.375 244.34375 Z M 362.375 289.9375 "
       fill="#000000"
       fill-opacity="1"
       fill-rule="nonzero"
       id="path1156" />
  </g>
  <path
     d="M 251.710938 143.992188 C 251.710938 147.4375 254.507812 150.234375 257.957031 150.234375 C 261.402344 150.234375 264.203125 147.4375 264.203125 143.992188 C 264.203125 133.574219 272.675781 125.097656 283.089844 125.097656 C 293.503906 125.097656 301.980469 133.574219 301.980469 143.992188 C 301.980469 147.4375 304.777344 150.234375 308.226562 150.234375 C 311.671875 150.234375 314.46875 147.4375 314.46875 143.992188 C 314.46875 126.6875 300.394531 112.609375 283.089844 112.609375 C 265.789062 112.609375 251.710938 126.6875 251.710938 143.992188 Z M 251.710938 143.992188 "
     fill="#000000"
     fill-opacity="1"
     fill-rule="nonzero"
     id="path1160" />
  <path
     d="M 114.570312 108.828125 C 118.019531 108.828125 120.816406 106.03125 120.816406 102.582031 C 120.816406 92.164062 129.289062 83.691406 139.703125 83.691406 C 150.121094 83.691406 158.59375 92.164062 158.59375 102.582031 C 158.59375 106.03125 161.394531 108.828125 164.839844 108.828125 C 168.289062 108.828125 171.085938 106.03125 171.085938 102.582031 C 171.085938 85.277344 157.007812 71.199219 139.703125 71.199219 C 122.402344 71.199219 108.324219 85.277344 108.324219 102.582031 C 108.324219 106.03125 111.121094 108.828125 114.570312 108.828125 Z M 114.570312 108.828125 "
     fill="#000000"
     fill-opacity="1"
     fill-rule="nonzero"
     id="path1162" />
  <path
     d="M 203.914062 102.582031 C 203.914062 106.03125 206.710938 108.828125 210.160156 108.828125 C 213.605469 108.828125 216.40625 106.03125 216.40625 102.582031 C 216.40625 92.164062 224.878906 83.691406 235.296875 83.691406 C 245.710938 83.691406 254.183594 92.164062 254.183594 102.582031 C 254.183594 106.03125 256.980469 108.828125 260.429688 108.828125 C 263.875 108.828125 266.675781 106.03125 266.675781 102.582031 C 266.675781 85.277344 252.597656 71.199219 235.296875 71.199219 C 217.992188 71.199219 203.914062 85.277344 203.914062 102.582031 Z M 203.914062 102.582031 "
     fill="#000000"
     fill-opacity="1"
     fill-rule="nonzero"
     id="path1164" />
  <g
     clip-path="url(#clip-4)"
     id="g1168">
    <path
       d="M 162.363281 66.878906 C 165.8125 66.878906 168.609375 64.078125 168.609375 60.632812 C 168.609375 50.214844 177.082031 41.742188 187.5 41.742188 C 197.917969 41.742188 206.390625 50.214844 206.390625 60.632812 C 206.390625 64.078125 209.1875 66.878906 212.636719 66.878906 C 216.085938 66.878906 218.882812 64.078125 218.882812 60.632812 C 218.882812 43.328125 204.804688 29.25 187.5 29.25 C 170.195312 29.25 156.117188 43.328125 156.117188 60.632812 C 156.117188 64.078125 158.914062 66.878906 162.363281 66.878906 Z M 162.363281 66.878906 "
       fill="#000000"
       fill-opacity="1"
       fill-rule="nonzero"
       id="path1166" />
  </g>
</svg>
