<?xml version="1.0" encoding="UTF-8" standalone="no"?>
<svg
   width="375pt"
   height="374.999991pt"
   viewBox="0 0 375 374.999991"
   version="1.2"
   id="svg1264"
   sodipodi:docname="Rent Trends.svg"
   inkscape:version="1.1.2 (0a00cf5339, 2022-02-04)"
   xmlns:inkscape="http://www.inkscape.org/namespaces/inkscape"
   xmlns:sodipodi="http://sodipodi.sourceforge.net/DTD/sodipodi-0.dtd"
   xmlns="http://www.w3.org/2000/svg"
   xmlns:svg="http://www.w3.org/2000/svg">
  <sodipodi:namedview
     id="namedview1266"
     pagecolor="#ffffff"
     bordercolor="#666666"
     borderopacity="1.0"
     inkscape:pageshadow="2"
     inkscape:pageopacity="0.0"
     inkscape:pagecheckerboard="0"
     inkscape:document-units="pt"
     showgrid="false"
     inkscape:zoom="1.798"
     inkscape:cx="73.414905"
     inkscape:cy="250"
     inkscape:window-width="1914"
     inkscape:window-height="1174"
     inkscape:window-x="0"
     inkscape:window-y="20"
     inkscape:window-maximized="1"
     inkscape:current-layer="svg1264" />
  <defs
     id="defs1237">
    <clipPath
       id="clip1">
      <path
         d="M 17.589844 65 L 364.089844 65 L 364.089844 252 L 17.589844 252 Z M 17.589844 65 "
         id="path1231" />
    </clipPath>
    <clipPath
       id="clip2">
      <path
         d="M 159 28.695312 L 222 28.695312 L 222 79 L 159 79 Z M 159 28.695312 "
         id="path1234" />
    </clipPath>
  </defs>
  <g
     id="surface1">
    <path
       style="stroke:none;fill-rule:nonzero;fill:#000000;fill-opacity:1"
       d="M 333.152344 226.695312 L 48.527344 226.695312 C 48.121094 226.695312 47.71875 226.65625 47.320312 226.578125 C 46.921875 226.496094 46.535156 226.378906 46.160156 226.226562 C 45.785156 226.070312 45.429688 225.878906 45.089844 225.652344 C 44.753906 225.425781 44.441406 225.171875 44.152344 224.882812 C 43.867188 224.597656 43.609375 224.285156 43.382812 223.945312 C 43.160156 223.609375 42.96875 223.25 42.8125 222.875 C 42.65625 222.5 42.539062 222.113281 42.460938 221.714844 C 42.382812 221.316406 42.339844 220.914062 42.339844 220.507812 L 42.339844 96.757812 C 42.339844 96.351562 42.382812 95.949219 42.460938 95.550781 C 42.539062 95.152344 42.65625 94.765625 42.8125 94.390625 C 42.96875 94.015625 43.160156 93.660156 43.382812 93.320312 C 43.609375 92.984375 43.867188 92.671875 44.152344 92.382812 C 44.441406 92.09375 44.753906 91.839844 45.089844 91.613281 C 45.429688 91.386719 45.785156 91.195312 46.160156 91.042969 C 46.535156 90.886719 46.921875 90.769531 47.320312 90.691406 C 47.71875 90.609375 48.121094 90.570312 48.527344 90.570312 L 333.152344 90.570312 C 333.558594 90.570312 333.960938 90.609375 334.359375 90.691406 C 334.757812 90.769531 335.144531 90.886719 335.523438 91.042969 C 335.898438 91.195312 336.253906 91.386719 336.589844 91.613281 C 336.929688 91.839844 337.242188 92.09375 337.527344 92.382812 C 337.816406 92.671875 338.074219 92.984375 338.296875 93.320312 C 338.523438 93.660156 338.714844 94.015625 338.871094 94.390625 C 339.027344 94.765625 339.144531 95.152344 339.222656 95.550781 C 339.300781 95.949219 339.339844 96.351562 339.339844 96.757812 L 339.339844 220.507812 C 339.339844 220.914062 339.300781 221.316406 339.222656 221.714844 C 339.144531 222.113281 339.027344 222.5 338.871094 222.875 C 338.714844 223.25 338.523438 223.609375 338.296875 223.945312 C 338.074219 224.285156 337.816406 224.597656 337.527344 224.882812 C 337.242188 225.171875 336.929688 225.425781 336.589844 225.652344 C 336.253906 225.878906 335.898438 226.070312 335.523438 226.226562 C 335.144531 226.378906 334.757812 226.496094 334.359375 226.578125 C 333.960938 226.65625 333.558594 226.695312 333.152344 226.695312 Z M 54.714844 214.320312 L 326.964844 214.320312 L 326.964844 102.945312 L 54.714844 102.945312 Z M 54.714844 214.320312 "
       id="path1239" />
    <g
       clip-path="url(#clip1)"
       clip-rule="nonzero"
       id="g1243">
      <path
         style="stroke:none;fill-rule:nonzero;fill:#000000;fill-opacity:1"
         d="M 357.902344 251.445312 L 23.777344 251.445312 C 23.371094 251.445312 22.96875 251.40625 22.570312 251.328125 C 22.171875 251.246094 21.785156 251.128906 21.410156 250.976562 C 21.035156 250.820312 20.679688 250.628906 20.339844 250.402344 C 20.003906 250.175781 19.691406 249.921875 19.402344 249.632812 C 19.117188 249.347656 18.859375 249.035156 18.632812 248.695312 C 18.410156 248.359375 18.21875 248 18.0625 247.625 C 17.90625 247.25 17.789062 246.863281 17.710938 246.464844 C 17.632812 246.066406 17.589844 245.664062 17.589844 245.257812 L 17.589844 72.007812 C 17.589844 71.601562 17.632812 71.199219 17.710938 70.800781 C 17.789062 70.402344 17.90625 70.015625 18.0625 69.640625 C 18.21875 69.265625 18.410156 68.910156 18.632812 68.570312 C 18.859375 68.234375 19.117188 67.921875 19.402344 67.632812 C 19.691406 67.34375 20.003906 67.089844 20.339844 66.863281 C 20.679688 66.636719 21.035156 66.445312 21.410156 66.292969 C 21.785156 66.136719 22.171875 66.019531 22.570312 65.941406 C 22.96875 65.859375 23.371094 65.820312 23.777344 65.820312 L 357.902344 65.820312 C 358.308594 65.820312 358.710938 65.859375 359.109375 65.941406 C 359.507812 66.019531 359.894531 66.136719 360.273438 66.292969 C 360.648438 66.445312 361.003906 66.636719 361.339844 66.863281 C 361.679688 67.089844 361.992188 67.34375 362.277344 67.632812 C 362.566406 67.921875 362.824219 68.234375 363.046875 68.570312 C 363.273438 68.910156 363.464844 69.265625 363.621094 69.640625 C 363.777344 70.015625 363.894531 70.402344 363.972656 70.800781 C 364.050781 71.199219 364.089844 71.601562 364.089844 72.007812 L 364.089844 245.257812 C 364.089844 245.664062 364.050781 246.066406 363.972656 246.464844 C 363.894531 246.863281 363.777344 247.25 363.621094 247.625 C 363.464844 248 363.273438 248.359375 363.046875 248.695312 C 362.824219 249.035156 362.566406 249.347656 362.277344 249.632812 C 361.992188 249.921875 361.679688 250.175781 361.339844 250.402344 C 361.003906 250.628906 360.648438 250.820312 360.273438 250.976562 C 359.894531 251.128906 359.507812 251.246094 359.109375 251.328125 C 358.710938 251.40625 358.308594 251.445312 357.902344 251.445312 Z M 29.964844 239.070312 L 351.714844 239.070312 L 351.714844 78.195312 L 29.964844 78.195312 Z M 29.964844 239.070312 "
         id="path1241" />
    </g>
    <g
       clip-path="url(#clip2)"
       clip-rule="nonzero"
       id="g1247">
      <path
         style="stroke:none;fill-rule:nonzero;fill:#000000;fill-opacity:1"
         d="M 215.589844 78.195312 L 166.089844 78.195312 C 165.683594 78.195312 165.28125 78.15625 164.882812 78.078125 C 164.484375 77.996094 164.097656 77.878906 163.722656 77.726562 C 163.347656 77.570312 162.992188 77.378906 162.652344 77.152344 C 162.316406 76.925781 162.003906 76.671875 161.714844 76.382812 C 161.429688 76.097656 161.171875 75.785156 160.945312 75.445312 C 160.722656 75.109375 160.53125 74.75 160.375 74.375 C 160.21875 74 160.101562 73.613281 160.023438 73.214844 C 159.945312 72.816406 159.902344 72.414062 159.902344 72.007812 L 159.902344 34.882812 C 159.902344 34.476562 159.945312 34.074219 160.023438 33.675781 C 160.101562 33.277344 160.21875 32.890625 160.375 32.515625 C 160.53125 32.140625 160.722656 31.785156 160.945312 31.445312 C 161.171875 31.109375 161.429688 30.796875 161.714844 30.507812 C 162.003906 30.21875 162.316406 29.964844 162.652344 29.738281 C 162.992188 29.511719 163.347656 29.320312 163.722656 29.167969 C 164.097656 29.011719 164.484375 28.894531 164.882812 28.816406 C 165.28125 28.734375 165.683594 28.695312 166.089844 28.695312 L 215.589844 28.695312 C 215.996094 28.695312 216.398438 28.734375 216.796875 28.816406 C 217.195312 28.894531 217.582031 29.011719 217.960938 29.167969 C 218.335938 29.320312 218.691406 29.511719 219.027344 29.738281 C 219.367188 29.964844 219.679688 30.21875 219.964844 30.507812 C 220.253906 30.796875 220.511719 31.109375 220.734375 31.445312 C 220.960938 31.785156 221.152344 32.140625 221.308594 32.515625 C 221.464844 32.890625 221.582031 33.277344 221.660156 33.675781 C 221.738281 34.074219 221.777344 34.476562 221.777344 34.882812 L 221.777344 72.007812 C 221.777344 72.414062 221.738281 72.816406 221.660156 73.214844 C 221.582031 73.613281 221.464844 74 221.308594 74.375 C 221.152344 74.75 220.960938 75.109375 220.734375 75.445312 C 220.511719 75.785156 220.253906 76.097656 219.964844 76.382812 C 219.679688 76.671875 219.367188 76.925781 219.027344 77.152344 C 218.691406 77.378906 218.335938 77.570312 217.960938 77.726562 C 217.582031 77.878906 217.195312 77.996094 216.796875 78.078125 C 216.398438 78.15625 215.996094 78.195312 215.589844 78.195312 Z M 172.277344 65.820312 L 209.402344 65.820312 L 209.402344 41.070312 L 172.277344 41.070312 Z M 172.277344 65.820312 "
         id="path1245" />
    </g>
    <path
       style="stroke:none;fill-rule:nonzero;fill:#000000;fill-opacity:1"
       d="M 215.589844 375.195312 L 166.089844 375.195312 C 165.683594 375.195312 165.28125 375.15625 164.882812 375.078125 C 164.484375 374.996094 164.097656 374.878906 163.722656 374.726562 C 163.347656 374.570312 162.992188 374.378906 162.652344 374.152344 C 162.316406 373.925781 162.003906 373.671875 161.714844 373.382812 C 161.429688 373.097656 161.171875 372.785156 160.945312 372.445312 C 160.722656 372.109375 160.53125 371.75 160.375 371.375 C 160.21875 371 160.101562 370.613281 160.023438 370.214844 C 159.945312 369.816406 159.902344 369.414062 159.902344 369.007812 L 159.902344 245.257812 C 159.902344 244.851562 159.945312 244.449219 160.023438 244.050781 C 160.101562 243.652344 160.21875 243.265625 160.375 242.890625 C 160.53125 242.515625 160.722656 242.160156 160.945312 241.820312 C 161.171875 241.484375 161.429688 241.171875 161.714844 240.882812 C 162.003906 240.59375 162.316406 240.339844 162.652344 240.113281 C 162.992188 239.886719 163.347656 239.695312 163.722656 239.542969 C 164.097656 239.386719 164.484375 239.269531 164.882812 239.191406 C 165.28125 239.109375 165.683594 239.070312 166.089844 239.070312 L 215.589844 239.070312 C 215.996094 239.070312 216.398438 239.109375 216.796875 239.191406 C 217.195312 239.269531 217.582031 239.386719 217.960938 239.542969 C 218.335938 239.695312 218.691406 239.886719 219.027344 240.113281 C 219.367188 240.339844 219.679688 240.59375 219.964844 240.882812 C 220.253906 241.171875 220.511719 241.484375 220.734375 241.820312 C 220.960938 242.160156 221.152344 242.515625 221.308594 242.890625 C 221.464844 243.265625 221.582031 243.652344 221.660156 244.050781 C 221.738281 244.449219 221.777344 244.851562 221.777344 245.257812 L 221.777344 369.007812 C 221.777344 369.414062 221.738281 369.816406 221.660156 370.214844 C 221.582031 370.613281 221.464844 371 221.308594 371.375 C 221.152344 371.75 220.960938 372.109375 220.734375 372.445312 C 220.511719 372.785156 220.253906 373.097656 219.964844 373.382812 C 219.679688 373.671875 219.367188 373.925781 219.027344 374.152344 C 218.691406 374.378906 218.335938 374.570312 217.960938 374.726562 C 217.582031 374.878906 217.195312 374.996094 216.796875 375.078125 C 216.398438 375.15625 215.996094 375.195312 215.589844 375.195312 Z M 172.277344 362.820312 L 209.402344 362.820312 L 209.402344 251.445312 L 172.277344 251.445312 Z M 172.277344 362.820312 "
       id="path1249" />
    <path
       style="stroke:none;fill-rule:nonzero;fill:#000000;fill-opacity:1"
       d="M 178.464844 189.570312 L 141.339844 189.570312 C 140.933594 189.570312 140.53125 189.53125 140.132812 189.453125 C 139.734375 189.371094 139.347656 189.253906 138.972656 189.101562 C 138.597656 188.945312 138.242188 188.753906 137.902344 188.527344 C 137.566406 188.300781 137.253906 188.046875 136.964844 187.757812 C 136.679688 187.472656 136.421875 187.160156 136.195312 186.820312 C 135.972656 186.484375 135.78125 186.125 135.625 185.75 C 135.46875 185.375 135.351562 184.988281 135.273438 184.589844 C 135.195312 184.191406 135.152344 183.789062 135.152344 183.382812 L 135.152344 133.882812 C 135.152344 133.476562 135.195312 133.074219 135.273438 132.675781 C 135.351562 132.277344 135.46875 131.890625 135.625 131.515625 C 135.78125 131.140625 135.972656 130.785156 136.195312 130.445312 C 136.421875 130.109375 136.679688 129.796875 136.964844 129.507812 C 137.253906 129.21875 137.566406 128.964844 137.902344 128.738281 C 138.242188 128.511719 138.597656 128.320312 138.972656 128.167969 C 139.347656 128.011719 139.734375 127.894531 140.132812 127.816406 C 140.53125 127.734375 140.933594 127.695312 141.339844 127.695312 L 178.464844 127.695312 C 178.871094 127.695312 179.273438 127.734375 179.671875 127.816406 C 180.070312 127.894531 180.457031 128.011719 180.835938 128.167969 C 181.210938 128.320312 181.566406 128.511719 181.902344 128.738281 C 182.242188 128.964844 182.554688 129.21875 182.839844 129.507812 C 183.128906 129.796875 183.386719 130.109375 183.609375 130.445312 C 183.835938 130.785156 184.027344 131.140625 184.183594 131.515625 C 184.339844 131.890625 184.457031 132.277344 184.535156 132.675781 C 184.613281 133.074219 184.652344 133.476562 184.652344 133.882812 C 184.652344 134.289062 184.613281 134.691406 184.535156 135.089844 C 184.457031 135.488281 184.339844 135.875 184.183594 136.25 C 184.027344 136.625 183.835938 136.984375 183.609375 137.320312 C 183.386719 137.660156 183.128906 137.972656 182.839844 138.257812 C 182.554688 138.546875 182.242188 138.800781 181.902344 139.027344 C 181.566406 139.253906 181.210938 139.445312 180.835938 139.601562 C 180.457031 139.753906 180.070312 139.871094 179.671875 139.953125 C 179.273438 140.03125 178.871094 140.070312 178.464844 140.070312 L 147.527344 140.070312 L 147.527344 177.195312 L 178.464844 177.195312 C 178.871094 177.195312 179.273438 177.234375 179.671875 177.316406 C 180.070312 177.394531 180.457031 177.511719 180.835938 177.667969 C 181.210938 177.820312 181.566406 178.011719 181.902344 178.238281 C 182.242188 178.464844 182.554688 178.71875 182.839844 179.007812 C 183.128906 179.296875 183.386719 179.609375 183.609375 179.945312 C 183.835938 180.285156 184.027344 180.640625 184.183594 181.015625 C 184.339844 181.390625 184.457031 181.777344 184.535156 182.175781 C 184.613281 182.574219 184.652344 182.976562 184.652344 183.382812 C 184.652344 183.789062 184.613281 184.191406 184.535156 184.589844 C 184.457031 184.988281 184.339844 185.375 184.183594 185.75 C 184.027344 186.125 183.835938 186.484375 183.609375 186.820312 C 183.386719 187.160156 183.128906 187.472656 182.839844 187.757812 C 182.554688 188.046875 182.242188 188.300781 181.902344 188.527344 C 181.566406 188.753906 181.210938 188.945312 180.835938 189.101562 C 180.457031 189.253906 180.070312 189.371094 179.671875 189.453125 C 179.273438 189.53125 178.871094 189.570312 178.464844 189.570312 Z M 178.464844 189.570312 "
       id="path1251" />
    <path
       style="stroke:none;fill-rule:nonzero;fill:#000000;fill-opacity:1"
       d="M 178.464844 164.820312 L 141.339844 164.820312 C 140.933594 164.820312 140.53125 164.78125 140.132812 164.703125 C 139.734375 164.621094 139.347656 164.503906 138.972656 164.351562 C 138.597656 164.195312 138.242188 164.003906 137.902344 163.777344 C 137.566406 163.550781 137.253906 163.296875 136.964844 163.007812 C 136.679688 162.722656 136.421875 162.410156 136.195312 162.070312 C 135.972656 161.734375 135.78125 161.375 135.625 161 C 135.46875 160.625 135.351562 160.238281 135.273438 159.839844 C 135.195312 159.441406 135.152344 159.039062 135.152344 158.632812 C 135.152344 158.226562 135.195312 157.824219 135.273438 157.425781 C 135.351562 157.027344 135.46875 156.640625 135.625 156.265625 C 135.78125 155.890625 135.972656 155.535156 136.195312 155.195312 C 136.421875 154.859375 136.679688 154.546875 136.964844 154.257812 C 137.253906 153.96875 137.566406 153.714844 137.902344 153.488281 C 138.242188 153.261719 138.597656 153.070312 138.972656 152.917969 C 139.347656 152.761719 139.734375 152.644531 140.132812 152.566406 C 140.53125 152.484375 140.933594 152.445312 141.339844 152.445312 L 178.464844 152.445312 C 178.871094 152.445312 179.273438 152.484375 179.671875 152.566406 C 180.070312 152.644531 180.457031 152.761719 180.835938 152.917969 C 181.210938 153.070312 181.566406 153.261719 181.902344 153.488281 C 182.242188 153.714844 182.554688 153.96875 182.839844 154.257812 C 183.128906 154.546875 183.386719 154.859375 183.609375 155.195312 C 183.835938 155.535156 184.027344 155.890625 184.183594 156.265625 C 184.339844 156.640625 184.457031 157.027344 184.535156 157.425781 C 184.613281 157.824219 184.652344 158.226562 184.652344 158.632812 C 184.652344 159.039062 184.613281 159.441406 184.535156 159.839844 C 184.457031 160.238281 184.339844 160.625 184.183594 161 C 184.027344 161.375 183.835938 161.734375 183.609375 162.070312 C 183.386719 162.410156 183.128906 162.722656 182.839844 163.007812 C 182.554688 163.296875 182.242188 163.550781 181.902344 163.777344 C 181.566406 164.003906 181.210938 164.195312 180.835938 164.351562 C 180.457031 164.503906 180.070312 164.621094 179.671875 164.703125 C 179.273438 164.78125 178.871094 164.820312 178.464844 164.820312 Z M 178.464844 164.820312 "
       id="path1253" />
    <path
       style="stroke:none;fill-rule:nonzero;fill:#000000;fill-opacity:1"
       d="M 240.339844 189.570312 C 239.367188 189.570312 238.445312 189.351562 237.574219 188.917969 C 236.703125 188.480469 235.976562 187.875 235.390625 187.09375 L 209.402344 152.445312 L 209.402344 183.382812 C 209.402344 183.789062 209.363281 184.191406 209.285156 184.589844 C 209.207031 184.988281 209.089844 185.375 208.933594 185.75 C 208.777344 186.125 208.585938 186.484375 208.359375 186.820312 C 208.136719 187.160156 207.878906 187.472656 207.589844 187.757812 C 207.304688 188.046875 206.992188 188.300781 206.652344 188.527344 C 206.316406 188.753906 205.960938 188.945312 205.585938 189.101562 C 205.207031 189.253906 204.820312 189.371094 204.421875 189.453125 C 204.023438 189.53125 203.621094 189.570312 203.214844 189.570312 C 202.808594 189.570312 202.40625 189.53125 202.007812 189.453125 C 201.609375 189.371094 201.222656 189.253906 200.847656 189.101562 C 200.472656 188.945312 200.117188 188.753906 199.777344 188.527344 C 199.441406 188.300781 199.128906 188.046875 198.839844 187.757812 C 198.554688 187.472656 198.296875 187.160156 198.070312 186.820312 C 197.847656 186.484375 197.65625 186.125 197.5 185.75 C 197.34375 185.375 197.226562 184.988281 197.148438 184.589844 C 197.070312 184.191406 197.027344 183.789062 197.027344 183.382812 L 197.027344 133.882812 C 197.027344 133.234375 197.128906 132.601562 197.328125 131.980469 C 197.527344 131.363281 197.816406 130.792969 198.195312 130.265625 C 198.578125 129.738281 199.027344 129.28125 199.550781 128.898438 C 200.074219 128.511719 200.644531 128.21875 201.257812 128.011719 C 201.875 127.808594 202.507812 127.703125 203.15625 127.695312 C 203.808594 127.691406 204.441406 127.785156 205.0625 127.976562 C 205.679688 128.171875 206.257812 128.453125 206.785156 128.828125 C 207.316406 129.203125 207.777344 129.652344 208.167969 130.171875 L 234.152344 164.820312 L 234.152344 133.882812 C 234.152344 133.476562 234.195312 133.074219 234.273438 132.675781 C 234.351562 132.277344 234.46875 131.890625 234.625 131.515625 C 234.78125 131.140625 234.972656 130.785156 235.195312 130.445312 C 235.421875 130.109375 235.679688 129.796875 235.964844 129.507812 C 236.253906 129.21875 236.566406 128.964844 236.902344 128.738281 C 237.242188 128.511719 237.597656 128.320312 237.972656 128.167969 C 238.347656 128.011719 238.734375 127.894531 239.132812 127.816406 C 239.53125 127.734375 239.933594 127.695312 240.339844 127.695312 C 240.746094 127.695312 241.148438 127.734375 241.546875 127.816406 C 241.945312 127.894531 242.332031 128.011719 242.710938 128.167969 C 243.085938 128.320312 243.441406 128.511719 243.777344 128.738281 C 244.117188 128.964844 244.429688 129.21875 244.714844 129.507812 C 245.003906 129.796875 245.261719 130.109375 245.484375 130.445312 C 245.710938 130.785156 245.902344 131.140625 246.058594 131.515625 C 246.214844 131.890625 246.332031 132.277344 246.410156 132.675781 C 246.488281 133.074219 246.527344 133.476562 246.527344 133.882812 L 246.527344 183.382812 C 246.527344 184.03125 246.429688 184.664062 246.230469 185.285156 C 246.03125 185.902344 245.742188 186.472656 245.363281 187 C 244.980469 187.527344 244.53125 187.980469 244.007812 188.367188 C 243.484375 188.75 242.914062 189.046875 242.300781 189.25 C 241.664062 189.464844 241.011719 189.570312 240.339844 189.570312 Z M 240.339844 189.570312 "
       id="path1255" />
    <path
       style="stroke:none;fill-rule:nonzero;fill:#000000;fill-opacity:1"
       d="M 302.214844 140.070312 L 265.089844 140.070312 C 264.683594 140.070312 264.28125 140.03125 263.882812 139.953125 C 263.484375 139.871094 263.097656 139.753906 262.722656 139.601562 C 262.347656 139.445312 261.992188 139.253906 261.652344 139.027344 C 261.316406 138.800781 261.003906 138.546875 260.714844 138.257812 C 260.429688 137.972656 260.171875 137.660156 259.945312 137.320312 C 259.722656 136.984375 259.53125 136.625 259.375 136.25 C 259.21875 135.875 259.101562 135.488281 259.023438 135.089844 C 258.945312 134.691406 258.902344 134.289062 258.902344 133.882812 C 258.902344 133.476562 258.945312 133.074219 259.023438 132.675781 C 259.101562 132.277344 259.21875 131.890625 259.375 131.515625 C 259.53125 131.140625 259.722656 130.785156 259.945312 130.445312 C 260.171875 130.109375 260.429688 129.796875 260.714844 129.507812 C 261.003906 129.21875 261.316406 128.964844 261.652344 128.738281 C 261.992188 128.511719 262.347656 128.320312 262.722656 128.167969 C 263.097656 128.011719 263.484375 127.894531 263.882812 127.816406 C 264.28125 127.734375 264.683594 127.695312 265.089844 127.695312 L 302.214844 127.695312 C 302.621094 127.695312 303.023438 127.734375 303.421875 127.816406 C 303.820312 127.894531 304.207031 128.011719 304.585938 128.167969 C 304.960938 128.320312 305.316406 128.511719 305.652344 128.738281 C 305.992188 128.964844 306.304688 129.21875 306.589844 129.507812 C 306.878906 129.796875 307.136719 130.109375 307.359375 130.445312 C 307.585938 130.785156 307.777344 131.140625 307.933594 131.515625 C 308.089844 131.890625 308.207031 132.277344 308.285156 132.675781 C 308.363281 133.074219 308.402344 133.476562 308.402344 133.882812 C 308.402344 134.289062 308.363281 134.691406 308.285156 135.089844 C 308.207031 135.488281 308.089844 135.875 307.933594 136.25 C 307.777344 136.625 307.585938 136.984375 307.359375 137.320312 C 307.136719 137.660156 306.878906 137.972656 306.589844 138.257812 C 306.304688 138.546875 305.992188 138.800781 305.652344 139.027344 C 305.316406 139.253906 304.960938 139.445312 304.585938 139.601562 C 304.207031 139.753906 303.820312 139.871094 303.421875 139.953125 C 303.023438 140.03125 302.621094 140.070312 302.214844 140.070312 Z M 302.214844 140.070312 "
       id="path1257" />
    <path
       style="stroke:none;fill-rule:nonzero;fill:#000000;fill-opacity:1"
       d="M 283.652344 189.570312 C 283.246094 189.570312 282.84375 189.53125 282.445312 189.453125 C 282.046875 189.371094 281.660156 189.253906 281.285156 189.101562 C 280.910156 188.945312 280.554688 188.753906 280.214844 188.527344 C 279.878906 188.300781 279.566406 188.046875 279.277344 187.757812 C 278.992188 187.472656 278.734375 187.160156 278.507812 186.820312 C 278.285156 186.484375 278.09375 186.125 277.9375 185.75 C 277.78125 185.375 277.664062 184.988281 277.585938 184.589844 C 277.507812 184.191406 277.464844 183.789062 277.464844 183.382812 L 277.464844 133.882812 C 277.464844 133.476562 277.507812 133.074219 277.585938 132.675781 C 277.664062 132.277344 277.78125 131.890625 277.9375 131.515625 C 278.09375 131.140625 278.285156 130.785156 278.507812 130.445312 C 278.734375 130.109375 278.992188 129.796875 279.277344 129.507812 C 279.566406 129.21875 279.878906 128.964844 280.214844 128.738281 C 280.554688 128.511719 280.910156 128.320312 281.285156 128.167969 C 281.660156 128.011719 282.046875 127.894531 282.445312 127.816406 C 282.84375 127.734375 283.246094 127.695312 283.652344 127.695312 C 284.058594 127.695312 284.460938 127.734375 284.859375 127.816406 C 285.257812 127.894531 285.644531 128.011719 286.023438 128.167969 C 286.398438 128.320312 286.753906 128.511719 287.089844 128.738281 C 287.429688 128.964844 287.742188 129.21875 288.027344 129.507812 C 288.316406 129.796875 288.574219 130.109375 288.796875 130.445312 C 289.023438 130.785156 289.214844 131.140625 289.371094 131.515625 C 289.527344 131.890625 289.644531 132.277344 289.722656 132.675781 C 289.800781 133.074219 289.839844 133.476562 289.839844 133.882812 L 289.839844 183.382812 C 289.839844 183.789062 289.800781 184.191406 289.722656 184.589844 C 289.644531 184.988281 289.527344 185.375 289.371094 185.75 C 289.214844 186.125 289.023438 186.484375 288.796875 186.820312 C 288.574219 187.160156 288.316406 187.472656 288.027344 187.757812 C 287.742188 188.046875 287.429688 188.300781 287.089844 188.527344 C 286.753906 188.753906 286.398438 188.945312 286.023438 189.101562 C 285.644531 189.253906 285.257812 189.371094 284.859375 189.453125 C 284.460938 189.53125 284.058594 189.570312 283.652344 189.570312 Z M 283.652344 189.570312 "
       id="path1259" />
    <path
       style="stroke:none;fill-rule:nonzero;fill:#000000;fill-opacity:1"
       d="M 116.585938 189.570312 C 115.339844 189.570312 114.195312 189.222656 113.160156 188.53125 L 85.652344 170.191406 L 85.652344 183.382812 C 85.652344 183.789062 85.613281 184.191406 85.535156 184.589844 C 85.457031 184.988281 85.339844 185.375 85.183594 185.75 C 85.027344 186.125 84.835938 186.484375 84.609375 186.820312 C 84.386719 187.160156 84.128906 187.472656 83.839844 187.757812 C 83.554688 188.046875 83.242188 188.300781 82.902344 188.527344 C 82.566406 188.753906 82.210938 188.945312 81.835938 189.101562 C 81.457031 189.253906 81.070312 189.371094 80.671875 189.453125 C 80.273438 189.53125 79.871094 189.570312 79.464844 189.570312 C 79.058594 189.570312 78.65625 189.53125 78.257812 189.453125 C 77.859375 189.371094 77.472656 189.253906 77.097656 189.101562 C 76.722656 188.945312 76.367188 188.753906 76.027344 188.527344 C 75.691406 188.300781 75.378906 188.046875 75.089844 187.757812 C 74.804688 187.472656 74.546875 187.160156 74.320312 186.820312 C 74.097656 186.484375 73.90625 186.125 73.75 185.75 C 73.59375 185.375 73.476562 184.988281 73.398438 184.589844 C 73.320312 184.191406 73.277344 183.789062 73.277344 183.382812 L 73.277344 133.882812 C 73.277344 133.476562 73.320312 133.074219 73.398438 132.675781 C 73.476562 132.277344 73.59375 131.890625 73.75 131.515625 C 73.90625 131.140625 74.097656 130.785156 74.320312 130.445312 C 74.546875 130.109375 74.804688 129.796875 75.089844 129.507812 C 75.378906 129.21875 75.691406 128.964844 76.027344 128.738281 C 76.367188 128.511719 76.722656 128.320312 77.097656 128.167969 C 77.472656 128.011719 77.859375 127.894531 78.257812 127.816406 C 78.65625 127.734375 79.058594 127.695312 79.464844 127.695312 L 110.402344 127.695312 C 111.214844 127.695312 112.019531 127.777344 112.816406 127.9375 C 113.613281 128.09375 114.386719 128.332031 115.136719 128.640625 C 115.886719 128.953125 116.601562 129.335938 117.273438 129.785156 C 117.949219 130.238281 118.574219 130.75 119.148438 131.324219 C 119.722656 131.898438 120.238281 132.523438 120.6875 133.199219 C 121.140625 133.875 121.519531 134.585938 121.832031 135.335938 C 122.144531 136.085938 122.378906 136.859375 122.539062 137.65625 C 122.699219 138.453125 122.777344 139.257812 122.777344 140.070312 L 122.777344 152.445312 C 122.777344 153.257812 122.699219 154.0625 122.539062 154.859375 C 122.378906 155.65625 122.144531 156.429688 121.832031 157.179688 C 121.519531 157.929688 121.140625 158.640625 120.6875 159.316406 C 120.238281 159.992188 119.722656 160.617188 119.148438 161.191406 C 118.574219 161.765625 117.949219 162.277344 117.273438 162.730469 C 116.601562 163.179688 115.886719 163.5625 115.136719 163.875 C 114.386719 164.1875 113.613281 164.421875 112.816406 164.582031 C 112.019531 164.738281 111.214844 164.820312 110.402344 164.820312 L 99.902344 164.820312 L 120.023438 178.234375 C 120.578125 178.605469 121.058594 179.050781 121.464844 179.574219 C 121.875 180.097656 122.191406 180.671875 122.414062 181.296875 C 122.640625 181.921875 122.761719 182.566406 122.777344 183.230469 C 122.792969 183.894531 122.703125 184.542969 122.511719 185.179688 C 122.320312 185.816406 122.03125 186.402344 121.648438 186.945312 C 121.265625 187.488281 120.808594 187.960938 120.273438 188.355469 C 119.742188 188.75 119.160156 189.050781 118.527344 189.257812 C 117.898438 189.46875 117.25 189.570312 116.585938 189.570312 Z M 85.652344 152.445312 L 110.402344 152.445312 L 110.402344 140.070312 L 85.652344 140.070312 Z M 85.652344 152.445312 "
       id="path1261" />
  </g>
</svg>
