<?xml version="1.0" encoding="UTF-8" standalone="no"?>
<svg
   width="375pt"
   height="374.999991pt"
   viewBox="0 0 375 374.999991"
   version="1.2"
   id="svg1342"
   sodipodi:docname="Share.svg"
   inkscape:version="1.1.2 (0a00cf5339, 2022-02-04)"
   xmlns:inkscape="http://www.inkscape.org/namespaces/inkscape"
   xmlns:sodipodi="http://sodipodi.sourceforge.net/DTD/sodipodi-0.dtd"
   xmlns="http://www.w3.org/2000/svg"
   xmlns:svg="http://www.w3.org/2000/svg">
  <sodipodi:namedview
     id="namedview1344"
     pagecolor="#ffffff"
     bordercolor="#666666"
     borderopacity="1.0"
     inkscape:pageshadow="2"
     inkscape:pageopacity="0.0"
     inkscape:pagecheckerboard="0"
     inkscape:document-units="pt"
     showgrid="false"
     inkscape:zoom="1.798"
     inkscape:cx="73.414905"
     inkscape:cy="250"
     inkscape:window-width="1914"
     inkscape:window-height="1174"
     inkscape:window-x="0"
     inkscape:window-y="20"
     inkscape:window-maximized="1"
     inkscape:current-layer="svg1342" />
  <defs
     id="defs1331">
    <clipPath
       id="clip1">
      <path
         d="M 67 71.191406 L 371.878906 71.191406 L 371.878906 322 L 67 322 Z M 67 71.191406 "
         id="path1325" />
    </clipPath>
    <clipPath
       id="clip2">
      <path
         d="M 14.128906 106 L 337 106 L 337 374.941406 L 14.128906 374.941406 Z M 14.128906 106 "
         id="path1328" />
    </clipPath>
  </defs>
  <g
     id="surface1">
    <g
       clip-path="url(#clip1)"
       clip-rule="nonzero"
       id="g1335">
      <path
         style="stroke:none;fill-rule:nonzero;fill:#000000;fill-opacity:1"
         d="M 228.777344 214.132812 C 103.566406 214.132812 67.792969 321.339844 67.792969 321.339844 C 67.792969 124.792969 228.777344 124.792969 228.777344 124.792969 L 228.777344 71.191406 L 371.878906 178.398438 L 228.777344 285.601562 Z M 228.777344 214.132812 "
         id="path1333" />
    </g>
    <g
       clip-path="url(#clip2)"
       clip-rule="nonzero"
       id="g1339">
      <path
         style="stroke:none;fill-rule:nonzero;fill:#000000;fill-opacity:1"
         d="M 121.453125 106.925781 L 121.453125 124.792969 L 32.019531 124.792969 L 32.019531 357.074219 L 318.214844 357.074219 L 318.214844 267.734375 L 336.101562 267.734375 L 336.101562 374.941406 L 14.128906 374.941406 L 14.128906 106.925781 Z M 121.453125 106.925781 "
         id="path1337" />
    </g>
  </g>
</svg>
