<?xml version="1.0" encoding="UTF-8" standalone="no"?>
<svg
   width="375pt"
   height="374.999991pt"
   viewBox="0 0 375 374.999991"
   version="1.2"
   id="svg1434"
   sodipodi:docname="Suburb Data.svg"
   inkscape:version="1.1.2 (0a00cf5339, 2022-02-04)"
   xmlns:inkscape="http://www.inkscape.org/namespaces/inkscape"
   xmlns:sodipodi="http://sodipodi.sourceforge.net/DTD/sodipodi-0.dtd"
   xmlns="http://www.w3.org/2000/svg"
   xmlns:svg="http://www.w3.org/2000/svg">
  <sodipodi:namedview
     id="namedview1436"
     pagecolor="#ffffff"
     bordercolor="#666666"
     borderopacity="1.0"
     inkscape:pageshadow="2"
     inkscape:pageopacity="0.0"
     inkscape:pagecheckerboard="0"
     inkscape:document-units="pt"
     showgrid="false"
     inkscape:zoom="0.899"
     inkscape:cx="394.8832"
     inkscape:cy="378.75417"
     inkscape:window-width="1914"
     inkscape:window-height="1174"
     inkscape:window-x="0"
     inkscape:window-y="20"
     inkscape:window-maximized="1"
     inkscape:current-layer="svg1434" />
  <defs
     id="defs1409">
    <clipPath
       id="clip1">
      <path
         d="M 4.519531 190 L 372.769531 190 L 372.769531 375 L 4.519531 375 Z M 4.519531 190 "
         id="path1403" />
    </clipPath>
    <clipPath
       id="clip2">
      <path
         d="M 188 37.5 L 327 37.5 L 327 253 L 188 253 Z M 188 37.5 "
         id="path1406" />
    </clipPath>
  </defs>
  <g
     id="surface1">
    <g
       clip-path="url(#clip1)"
       clip-rule="nonzero"
       id="g1413">
      <path
         style="stroke:none;fill-rule:nonzero;fill:#000000;fill-opacity:1"
         d="M 365.023438 375 L 12.269531 375 C 9.878906 375 7.625 373.878906 6.183594 371.992188 C 4.742188 370.089844 4.25 367.621094 4.878906 365.320312 L 50.890625 196.570312 C 51.792969 193.226562 54.816406 190.910156 58.28125 190.910156 L 226.988281 190.910156 C 231.222656 190.910156 234.65625 194.34375 234.65625 198.578125 C 234.65625 202.8125 231.222656 206.25 226.988281 206.25 L 64.140625 206.25 L 22.316406 359.660156 L 354.976562 359.660156 L 313.152344 206.25 L 288.335938 206.25 C 284.105469 206.25 280.667969 202.8125 280.667969 198.578125 C 280.667969 194.34375 284.105469 190.910156 288.335938 190.910156 L 319.011719 190.910156 C 322.476562 190.910156 325.5 193.226562 326.402344 196.570312 L 372.414062 365.320312 C 373.042969 367.621094 372.550781 370.089844 371.109375 371.992188 C 369.667969 373.878906 367.414062 375 365.023438 375 Z M 365.023438 375 "
         id="path1411" />
    </g>
    <path
       style="stroke:none;fill-rule:nonzero;fill:#000000;fill-opacity:1"
       d="M 104.292969 375 C 102.683594 375 101.070312 374.492188 99.691406 373.464844 C 96.300781 370.917969 95.613281 366.117188 98.15625 362.726562 L 167.175781 270.683594 C 169.71875 267.277344 174.519531 266.601562 177.910156 269.148438 C 181.300781 271.695312 181.988281 276.496094 179.445312 279.886719 L 110.425781 371.933594 C 108.925781 373.941406 106.625 375 104.292969 375 Z M 104.292969 375 "
       id="path1415" />
    <path
       style="stroke:none;fill-rule:nonzero;fill:#000000;fill-opacity:1"
       d="M 319.011719 375 C 317.554688 375 316.082031 374.585938 314.761719 373.710938 L 61.703125 204.960938 C 58.175781 202.613281 57.222656 197.859375 59.570312 194.332031 C 61.917969 190.800781 66.65625 189.851562 70.199219 192.199219 L 323.257812 360.949219 C 326.785156 363.292969 327.738281 368.050781 325.390625 371.578125 C 323.917969 373.804688 321.480469 375 319.011719 375 Z M 319.011719 375 "
       id="path1417" />
    <path
       style="stroke:none;fill-rule:nonzero;fill:#000000;fill-opacity:1"
       d="M 134.96875 328.976562 C 133.511719 328.976562 132.039062 328.5625 130.71875 327.6875 L 38.695312 266.324219 C 35.167969 263.976562 34.21875 259.222656 36.566406 255.695312 C 38.894531 252.164062 43.648438 251.214844 47.191406 253.5625 L 139.214844 314.925781 C 142.742188 317.273438 143.695312 322.027344 141.347656 325.554688 C 139.875 327.78125 137.4375 328.976562 134.96875 328.976562 Z M 134.96875 328.976562 "
       id="path1419" />
    <path
       style="stroke:none;fill-rule:nonzero;fill:#000000;fill-opacity:1"
       d="M 288.335938 305.964844 C 286.789062 305.964844 285.238281 305.503906 283.890625 304.539062 C 280.4375 302.085938 279.640625 297.28125 282.109375 293.847656 L 320.453125 240.152344 C 322.921875 236.71875 327.707031 235.917969 331.140625 238.375 C 334.59375 240.828125 335.390625 245.628906 332.921875 249.066406 L 294.578125 302.757812 C 293.074219 304.847656 290.730469 305.964844 288.335938 305.964844 Z M 288.335938 305.964844 "
       id="path1421" />
    <path
       style="stroke:none;fill-rule:nonzero;fill:#000000;fill-opacity:1"
       d="M 357.351562 351.988281 C 355.910156 351.988281 354.453125 351.589844 353.167969 350.730469 L 130.78125 204.992188 C 127.238281 202.675781 126.253906 197.917969 128.554688 194.375 C 130.886719 190.847656 135.640625 189.851562 139.167969 192.152344 L 361.554688 337.890625 C 365.097656 340.207031 366.082031 344.960938 363.78125 348.507812 C 362.292969 350.761719 359.851562 351.988281 357.351562 351.988281 Z M 357.351562 351.988281 "
       id="path1423" />
    <path
       style="stroke:none;fill-rule:nonzero;fill:#000000;fill-opacity:1"
       d="M 203.984375 375 C 202.648438 375 201.285156 374.648438 200.042969 373.910156 L 161.699219 350.898438 C 159.90625 349.824219 158.617188 348.046875 158.171875 346.003906 C 157.710938 343.949219 158.109375 341.816406 159.277344 340.070312 L 174.613281 317.058594 C 176.867188 313.652344 181.390625 312.59375 184.933594 314.742188 L 223.277344 337.753906 C 225.070312 338.824219 226.359375 340.605469 226.804688 342.644531 C 227.265625 344.703125 226.867188 346.835938 225.699219 348.582031 L 210.363281 371.59375 C 208.890625 373.789062 206.46875 375 203.984375 375 Z M 176.484375 341.878906 L 201.667969 356.988281 L 208.476562 346.757812 L 183.292969 331.648438 Z M 176.484375 341.878906 "
       id="path1425" />
    <path
       style="stroke:none;fill-rule:nonzero;fill:#000000;fill-opacity:1"
       d="M 257.664062 144.886719 C 236.527344 144.886719 219.320312 127.675781 219.320312 106.535156 C 219.320312 85.394531 236.527344 68.183594 257.664062 68.183594 C 278.796875 68.183594 296.003906 85.394531 296.003906 106.535156 C 296.003906 127.675781 278.796875 144.886719 257.664062 144.886719 Z M 257.664062 83.523438 C 244.980469 83.523438 234.65625 93.847656 234.65625 106.535156 C 234.65625 119.222656 244.980469 129.546875 257.664062 129.546875 C 270.347656 129.546875 280.667969 119.222656 280.667969 106.535156 C 280.667969 93.847656 270.347656 83.523438 257.664062 83.523438 Z M 257.664062 83.523438 "
       id="path1427" />
    <g
       clip-path="url(#clip2)"
       clip-rule="nonzero"
       id="g1431">
      <path
         style="stroke:none;fill-rule:nonzero;fill:#000000;fill-opacity:1"
         d="M 257.664062 252.273438 C 254.949219 252.273438 252.433594 250.832031 251.050781 248.5 C 244.671875 237.652344 188.644531 141.496094 188.644531 106.535156 C 188.644531 68.472656 219.613281 37.5 257.664062 37.5 C 295.714844 37.5 326.679688 68.472656 326.679688 106.535156 C 326.679688 141.496094 270.652344 237.652344 264.273438 248.5 C 262.894531 250.832031 260.378906 252.273438 257.664062 252.273438 Z M 257.664062 52.839844 C 228.0625 52.839844 203.984375 76.925781 203.984375 106.535156 C 203.984375 129.667969 238.214844 194.929688 257.664062 229.246094 C 277.109375 194.929688 311.34375 129.667969 311.34375 106.535156 C 311.34375 76.925781 287.261719 52.839844 257.664062 52.839844 Z M 257.664062 52.839844 "
         id="path1429" />
    </g>
  </g>
</svg>
