<?xml version="1.0" encoding="UTF-8" standalone="no"?>
<svg
   width="375pt"
   height="374.999991pt"
   viewBox="0 0 375 374.999991"
   version="1.2"
   id="svg1505"
   sodipodi:docname="Summary.svg"
   inkscape:version="1.1.2 (0a00cf5339, 2022-02-04)"
   xmlns:inkscape="http://www.inkscape.org/namespaces/inkscape"
   xmlns:sodipodi="http://sodipodi.sourceforge.net/DTD/sodipodi-0.dtd"
   xmlns="http://www.w3.org/2000/svg"
   xmlns:svg="http://www.w3.org/2000/svg">
  <sodipodi:namedview
     id="namedview1507"
     pagecolor="#ffffff"
     bordercolor="#666666"
     borderopacity="1.0"
     inkscape:pageshadow="2"
     inkscape:pageopacity="0.0"
     inkscape:pagecheckerboard="0"
     inkscape:document-units="pt"
     showgrid="false"
     inkscape:zoom="1.798"
     inkscape:cx="73.414905"
     inkscape:cy="250"
     inkscape:window-width="1914"
     inkscape:window-height="1174"
     inkscape:window-x="0"
     inkscape:window-y="20"
     inkscape:window-maximized="1"
     inkscape:current-layer="svg1505" />
  <defs
     id="defs1498">
    <clipPath
       id="clip1">
      <path
         d="M 15.25 50.265625 L 363.25 50.265625 L 363.25 375 L 15.25 375 Z M 15.25 50.265625 "
         id="path1495" />
    </clipPath>
  </defs>
  <g
     id="surface1">
    <g
       clip-path="url(#clip1)"
       clip-rule="nonzero"
       id="g1502">
      <path
         style="stroke:none;fill-rule:nonzero;fill:#000000;fill-opacity:1"
         d="M 328.488281 50.300781 L 108.332031 50.300781 C 87.089844 50.300781 69.707031 67.695312 69.707031 88.953125 L 69.707031 95.910156 L 27.222656 70.789062 C 24.519531 69.242188 21.042969 69.242188 18.726562 71.171875 C 16.019531 73.105469 15.25 76.199219 16.019531 79.289062 L 34.945312 152.730469 C 37.652344 163.554688 42.285156 173.214844 48.078125 181.71875 C 53.871094 190.222656 61.210938 197.953125 69.707031 203.75 L 69.707031 320.871094 L 54.257812 320.871094 C 50.011719 320.871094 46.535156 324.347656 46.535156 328.601562 L 46.535156 336.332031 C 46.535156 357.589844 63.914062 374.984375 85.15625 374.984375 L 274.414062 374.984375 C 293.726562 374.984375 309.175781 359.523438 309.175781 340.195312 L 309.175781 119.875 L 355.523438 119.875 C 359.773438 119.875 363.25 116.398438 363.25 112.144531 L 363.25 85.089844 C 363.25 65.761719 347.800781 50.300781 328.488281 50.300781 Z M 49.625 148.480469 L 35.332031 93.59375 L 84 122.582031 C 112.96875 139.976562 126.871094 173.214844 119.148438 205.683594 C 86.316406 204.136719 58.121094 181.332031 49.625 148.480469 Z M 85.15625 359.523438 C 72.410156 359.523438 61.984375 349.085938 61.984375 336.332031 L 239.652344 336.332031 L 239.652344 340.195312 C 239.652344 347.152344 241.96875 354.109375 245.445312 359.523438 Z M 293.726562 85.089844 L 293.726562 340.195312 C 293.726562 351.019531 285.230469 359.523438 274.414062 359.523438 C 263.597656 359.523438 255.101562 351.019531 255.101562 340.195312 L 255.101562 328.601562 C 255.101562 324.347656 251.625 320.871094 247.378906 320.871094 L 85.15625 320.871094 L 85.15625 213.027344 C 96.359375 218.054688 108.332031 221.144531 121.464844 221.144531 L 147.34375 255.933594 C 147.34375 255.933594 147.34375 255.933594 147.726562 256.320312 C 148.113281 256.707031 148.113281 257.09375 148.5 257.09375 C 148.5 257.09375 148.886719 257.480469 148.886719 257.480469 C 149.273438 257.867188 149.273438 257.867188 149.660156 258.253906 C 149.660156 258.253906 150.046875 258.253906 150.046875 258.636719 C 150.433594 258.636719 150.816406 259.023438 151.203125 259.023438 C 151.203125 259.023438 151.589844 259.023438 151.589844 259.023438 C 151.976562 259.023438 152.75 259.023438 153.136719 259.023438 L 262.828125 259.023438 C 267.074219 259.023438 270.550781 255.546875 270.550781 251.292969 C 270.550781 247.042969 267.074219 243.5625 262.828125 243.5625 L 157.382812 243.5625 L 133.824219 211.867188 C 144.636719 172.441406 128.03125 130.699219 92.496094 109.441406 L 85.15625 105.1875 L 85.15625 88.953125 C 85.15625 76.199219 95.585938 65.761719 108.332031 65.761719 L 299.519531 65.761719 C 296.042969 71.171875 293.726562 77.746094 293.726562 85.089844 Z M 309.175781 85.089844 C 309.175781 74.265625 317.671875 65.761719 328.488281 65.761719 C 339.300781 65.761719 347.800781 74.265625 347.800781 85.089844 L 347.800781 104.414062 L 309.175781 104.414062 Z M 270.550781 289.945312 C 270.550781 294.199219 267.074219 297.675781 262.828125 297.675781 L 116.058594 297.675781 C 111.808594 297.675781 108.332031 294.199219 108.332031 289.945312 C 108.332031 285.695312 111.808594 282.214844 116.058594 282.214844 L 262.828125 282.214844 C 267.074219 282.214844 270.550781 285.695312 270.550781 289.945312 Z M 270.550781 212.640625 C 270.550781 216.894531 267.074219 220.371094 262.828125 220.371094 L 177.855469 220.371094 C 173.605469 220.371094 170.128906 216.894531 170.128906 212.640625 C 170.128906 208.390625 173.605469 204.910156 177.855469 204.910156 L 262.828125 204.910156 C 267.074219 204.910156 270.550781 208.390625 270.550781 212.640625 Z M 270.550781 173.988281 C 270.550781 178.242188 267.074219 181.71875 262.828125 181.71875 L 177.855469 181.71875 C 173.605469 181.71875 170.128906 178.242188 170.128906 173.988281 C 170.128906 169.738281 173.605469 166.257812 177.855469 166.257812 L 262.828125 166.257812 C 267.074219 166.257812 270.550781 169.738281 270.550781 173.988281 Z M 270.550781 135.335938 C 270.550781 139.589844 267.074219 143.066406 262.828125 143.066406 L 177.855469 143.066406 C 173.605469 143.066406 170.128906 139.589844 170.128906 135.335938 C 170.128906 131.085938 173.605469 127.605469 177.855469 127.605469 L 262.828125 127.605469 C 267.074219 127.605469 270.550781 131.085938 270.550781 135.335938 Z M 108.332031 96.683594 C 108.332031 92.433594 111.808594 88.953125 116.058594 88.953125 L 262.828125 88.953125 C 267.074219 88.953125 270.550781 92.433594 270.550781 96.683594 C 270.550781 100.9375 267.074219 104.414062 262.828125 104.414062 L 116.058594 104.414062 C 111.808594 104.414062 108.332031 100.9375 108.332031 96.683594 Z M 153.523438 259.023438 C 153.136719 259.023438 152.363281 259.023438 151.976562 259.023438 C 152.363281 259.023438 153.136719 259.023438 153.523438 259.023438 Z M 153.523438 259.023438 "
         id="path1500" />
    </g>
  </g>
</svg>
