<?xml version="1.0" encoding="UTF-8" standalone="no"?>
<svg
   width="375pt"
   height="374.999991pt"
   viewBox="0 0 375 374.999991"
   version="1.2"
   id="svg1584"
   sodipodi:docname="Unit Trends.svg"
   inkscape:version="1.1.2 (0a00cf5339, 2022-02-04)"
   xmlns:inkscape="http://www.inkscape.org/namespaces/inkscape"
   xmlns:sodipodi="http://sodipodi.sourceforge.net/DTD/sodipodi-0.dtd"
   xmlns="http://www.w3.org/2000/svg"
   xmlns:svg="http://www.w3.org/2000/svg">
  <sodipodi:namedview
     id="namedview1586"
     pagecolor="#ffffff"
     bordercolor="#666666"
     borderopacity="1.0"
     inkscape:pageshadow="2"
     inkscape:pageopacity="0.0"
     inkscape:pagecheckerboard="0"
     inkscape:document-units="pt"
     showgrid="false"
     inkscape:zoom="1.798"
     inkscape:cx="249.72191"
     inkscape:cy="250"
     inkscape:window-width="1914"
     inkscape:window-height="1174"
     inkscape:window-x="0"
     inkscape:window-y="20"
     inkscape:window-maximized="1"
     inkscape:current-layer="svg1584" />
  <defs
     id="defs1569">
    <clipPath
       id="clip1">
      <path
         d="M 26.683594 20.570312 L 340.183594 20.570312 L 340.183594 375 L 26.683594 375 Z M 26.683594 20.570312 "
         id="path1566" />
    </clipPath>
  </defs>
  <g
     id="surface1">
    <g
       clip-path="url(#clip1)"
       clip-rule="nonzero"
       id="g1573">
      <path
         style="stroke:none;fill-rule:nonzero;fill:#000000;fill-opacity:1"
         d="M 299.238281 34.214844 L 312.863281 34.214844 L 312.863281 20.570312 L 54 20.570312 L 54 34.214844 L 67.625 34.214844 L 67.625 361.675781 L 26.75 361.675781 L 26.75 375.320312 L 340.113281 375.320312 L 340.113281 361.675781 L 299.238281 361.675781 Z M 231.117188 361.675781 L 135.746094 361.675781 L 135.746094 307.101562 L 231.117188 307.101562 Z M 285.617188 361.675781 L 244.742188 361.675781 L 244.742188 293.457031 L 122.121094 293.457031 L 122.121094 361.675781 L 81.25 361.675781 L 81.25 34.214844 L 285.617188 34.214844 Z M 285.617188 361.675781 "
         id="path1571" />
    </g>
    <path
       style="stroke:none;fill-rule:nonzero;fill:#000000;fill-opacity:1"
       d="M 176.621094 88.792969 L 108.496094 88.792969 L 108.496094 157.011719 L 176.621094 157.011719 Z M 162.996094 143.371094 L 122.121094 143.371094 L 122.121094 102.4375 L 162.996094 102.4375 Z M 162.996094 143.371094 "
       id="path1575" />
    <path
       style="stroke:none;fill-rule:nonzero;fill:#000000;fill-opacity:1"
       d="M 258.367188 88.792969 L 190.242188 88.792969 L 190.242188 157.011719 L 258.367188 157.011719 Z M 244.742188 143.371094 L 203.867188 143.371094 L 203.867188 102.4375 L 244.742188 102.4375 Z M 244.742188 143.371094 "
       id="path1577" />
    <path
       style="stroke:none;fill-rule:nonzero;fill:#000000;fill-opacity:1"
       d="M 176.621094 184.300781 L 108.496094 184.300781 L 108.496094 252.523438 L 176.621094 252.523438 Z M 162.996094 238.878906 L 122.121094 238.878906 L 122.121094 197.945312 L 162.996094 197.945312 Z M 162.996094 238.878906 "
       id="path1579" />
    <path
       style="stroke:none;fill-rule:nonzero;fill:#000000;fill-opacity:1"
       d="M 258.367188 184.300781 L 190.242188 184.300781 L 190.242188 252.523438 L 258.367188 252.523438 Z M 244.742188 238.878906 L 203.867188 238.878906 L 203.867188 197.945312 L 244.742188 197.945312 Z M 244.742188 238.878906 "
       id="path1581" />
  </g>
</svg>
