<?xml version="1.0" encoding="UTF-8" standalone="no"?>
<svg
   version="1.1"
   width="500"
   height="500"
   viewBox="0 0 500 500"
   id="svg4"
   sodipodi:docname="Map.svg"
   inkscape:version="1.1.2 (0a00cf5339, 2022-02-04)"
   xmlns:inkscape="http://www.inkscape.org/namespaces/inkscape"
   xmlns:sodipodi="http://sodipodi.sourceforge.net/DTD/sodipodi-0.dtd"
   xmlns="http://www.w3.org/2000/svg"
   xmlns:svg="http://www.w3.org/2000/svg"
   xmlns:rdf="http://www.w3.org/1999/02/22-rdf-syntax-ns#"
   xmlns:cc="http://creativecommons.org/ns#"
   xmlns:dc="http://purl.org/dc/elements/1.1/">
  <sodipodi:namedview
     id="namedview908"
     pagecolor="#ffffff"
     bordercolor="#666666"
     borderopacity="1.0"
     inkscape:pageshadow="2"
     inkscape:pageopacity="0.0"
     inkscape:pagecheckerboard="0"
     showgrid="false"
     inkscape:zoom="1.798"
     inkscape:cx="73.414905"
     inkscape:cy="250"
     inkscape:window-width="1914"
     inkscape:window-height="1174"
     inkscape:window-x="0"
     inkscape:window-y="20"
     inkscape:window-maximized="1"
     inkscape:current-layer="svg4" />
  <metadata
     id="metadata10">
    <rdf:RDF>
      <cc:Work
         rdf:about="">
        <dc:format>image/svg+xml</dc:format>
        <dc:type
           rdf:resource="http://purl.org/dc/dcmitype/StillImage" />
      </cc:Work>
    </rdf:RDF>
  </metadata>
  <defs
     id="defs8" />
  <path
     d="m 468.38887,45.999962 -4.03552,0.756666 -134.68666,52.21 L 178.33333,45.999962 36.080001,93.922184 c -5.296667,1.765554 -9.08,6.305556 -9.08,12.106666 v 381.35998 c -9e-6,6.96494 5.646181,12.61113 12.611112,12.61113 L 43.646667,499.24328 178.33333,447.03335 329.66669,500 471.92001,452.07779 C 477.21666,450.31231 481,445.77223 481,439.9711 V 58.611074 c 0,-6.964931 -5.64619,-12.611121 -12.61113,-12.611112 M 188.99125,71.974247 318.64589,117.56544 V 473.58772 L 188.99125,427.99653 V 71.974247 M 48.237513,113.87188 167.75374,71.974247 V 429.00541 L 48.237513,474.68638 V 113.87188 M 459.76251,431.87585 339.88339,474.29611 V 117.51717 L 459.76251,71.313556 Z"
     id="path2"
     style="fill:#000000;fill-opacity:1;stroke-width:0.999999" />
</svg>
